# xmcd
#
# Track frame offsets:
#	150
#	15071
#	36772
#	50443
#	66196
#	83956
#	114262
#	131941
#	151795
#	165601
#	191372
#	210954
#	227193
#	246912
#
# Disc length: 3581 seconds
#
# Revision: 0
# Processed by: cddbd v1.5.2PL0 Copyright (c) Steve Scherf et al.
# Submitted via: dBpowerAMP V4.0
#
DISCID=aa0dfb0e
DTITLE=John Mayall And The Bluesbreakers - In The Palace Of The King
DYEAR=2006
DGENRE=Blues Rock
TTITLE0=You Know That You Love Me
TTITLE1=Going Down
TTITLE2=Some Other Day Some Other Time
TTITLE3=Palace Of The King
TTITLE4=I'd Rather Be Blind
TTITLE5=Time To Go
TTITLE6=Big Legged Woman
TTITLE7=Now I Got A Woman
TTITLE8=I Love You More Every Day
TTITLE9=Help Me Through The Day
TTITLE10=Cannonball Shuffle
TTITLE11=You've Got Me Licked
TTITLE12=King Of Kings
TTITLE13=Living On The Highway
EXTD=
EXTT0=
EXTT1=
EXTT2=
EXTT3=
EXTT4=
EXTT5=
EXTT6=
EXTT7=
EXTT8=
EXTT9=
EXTT10=
EXTT11=
EXTT12=
EXTT13=
PLAYORDER=
